M48
; DRILL file {KiCad 9.0.2+dfsg-1} date 2026-01-13T12:23:45+0000
; FORMAT={-:-/ absolute / metric / decimal}
; #@! TF.CreationDate,2026-01-13T12:23:45+00:00
; #@! TF.GenerationSoftware,Kicad,Pcbnew,9.0.2+dfsg-1
; #@! TF.FileFunction,Plated,1,2,PTH
FMAT,2
METRIC
; #@! TA.AperFunction,Plated,PTH,ComponentDrill
T1C0.300
; #@! TA.AperFunction,Plated,PTH,ViaDrill
T2C0.400
; #@! TA.AperFunction,Plated,PTH,ComponentDrill
T3C0.800
; #@! TA.AperFunction,Plated,PTH,ComponentDrill
T4C1.000
; #@! TA.AperFunction,Plated,PTH,ComponentDrill
T5C1.016
; #@! TA.AperFunction,Plated,PTH,ComponentDrill
T6C1.300
%
G90
G05
T1
X95.0Y-41.6
X95.0Y-100.6
X96.3Y-40.3
X96.3Y-41.6
X96.3Y-99.3
X96.3Y-100.6
X97.6Y-40.3
X97.6Y-41.6
X97.6Y-99.3
X97.6Y-100.6
X163.0Y-41.6
X163.0Y-100.6
X164.3Y-40.3
X164.3Y-41.6
X164.3Y-99.3
X164.3Y-100.6
X165.6Y-40.3
X165.6Y-41.6
X165.6Y-99.3
X165.6Y-100.6
T2
X86.8Y-39.5
X86.8Y-40.8
X86.8Y-42.0
X86.8Y-98.5
X86.8Y-99.8
X86.8Y-101.0
X88.0Y-39.5
X88.0Y-40.8
X88.0Y-42.0
X88.0Y-83.1
X88.0Y-98.5
X88.0Y-99.8
X88.0Y-101.0
X88.0Y-142.1
X88.1Y-55.9
X88.1Y-114.9
X88.2Y-66.05
X88.2Y-125.05
X88.8Y-52.2
X88.8Y-111.2
X88.9Y-60.3
X88.9Y-119.3
X89.2Y-39.5
X89.2Y-40.8
X89.2Y-42.0
X89.2Y-98.5
X89.2Y-99.8
X89.2Y-101.0
X89.45Y-80.35
X89.45Y-139.35
X90.066Y-60.621
X90.066Y-119.621
X90.16Y-62.65
X90.16Y-121.65
X90.95Y-36.8
X90.95Y-38.0
X90.95Y-79.8
X90.95Y-95.8
X90.95Y-97.0
X90.95Y-138.8
X91.3Y-51.1
X91.3Y-110.1
X91.41Y-65.3
X91.41Y-124.3
X91.755Y-76.955
X91.755Y-135.955
X92.2Y-36.8
X92.2Y-38.0
X92.2Y-95.8
X92.2Y-97.0
X92.9Y-72.45
X92.9Y-77.15
X92.9Y-80.4
X92.9Y-131.45
X92.9Y-136.15
X92.9Y-139.4
X93.101Y-64.745
X93.101Y-123.745
X93.2Y-41.7
X93.2Y-100.7
X93.4Y-38.0
X93.4Y-97.0
X94.688Y-56.698
X94.688Y-115.698
X95.0Y-51.6
X95.0Y-81.8
X95.0Y-110.6
X95.0Y-140.8
X95.15Y-48.425
X95.15Y-107.425
X95.275Y-60.675
X95.275Y-119.675
X95.5Y-54.6
X95.5Y-113.6
X95.531Y-55.999
X95.531Y-114.999
X95.707Y-44.225
X95.707Y-103.225
X96.1Y-36.0
X96.1Y-95.0
X96.284Y-55.299
X96.284Y-114.299
X96.3Y-53.8
X96.3Y-112.8
X96.6Y-61.4
X96.6Y-120.4
X96.925Y-45.0
X96.925Y-104.0
X97.1Y-70.9
X97.1Y-129.9
X97.2Y-76.3
X97.2Y-135.3
X97.9Y-50.2
X97.9Y-109.2
X98.2Y-45.0
X98.2Y-104.0
X98.85Y-38.85
X98.85Y-97.85
X99.6Y-72.3
X99.6Y-74.3
X99.6Y-76.3
X99.6Y-131.3
X99.6Y-133.3
X99.6Y-135.3
X99.7Y-81.6
X99.7Y-140.6
X99.78Y-40.9
X99.78Y-43.5
X99.78Y-99.9
X99.78Y-102.5
X100.1Y-56.0
X100.1Y-115.0
X100.4Y-46.3
X100.4Y-105.3
X101.7Y-47.2
X101.7Y-106.2
X101.75Y-56.0
X101.75Y-115.0
X102.5Y-41.153
X102.5Y-100.153
X102.524Y-37.554
X102.524Y-96.554
X102.8Y-82.8
X102.8Y-141.8
X103.3Y-80.741
X103.3Y-139.741
X104.15Y-53.6
X104.15Y-112.6
X104.2Y-64.2
X104.2Y-123.2
X104.35Y-49.521
X104.35Y-108.521
X104.749Y-37.196
X104.749Y-96.196
X105.0Y-72.2
X105.0Y-131.2
X105.118Y-80.105
X105.118Y-139.105
X105.65Y-39.4
X105.65Y-98.4
X105.9Y-38.3
X105.9Y-97.3
X106.155Y-37.055
X106.155Y-96.055
X106.187Y-40.243
X106.187Y-99.243
X106.361Y-80.173
X106.361Y-139.173
X106.6Y-64.2
X106.6Y-123.2
X106.7Y-74.25
X106.7Y-133.25
X106.895Y-76.946
X106.895Y-135.946
X107.201Y-49.668
X107.201Y-108.668
X107.25Y-70.8
X107.25Y-129.8
X107.7Y-75.2
X107.7Y-134.2
X107.899Y-41.43
X107.899Y-100.43
X107.9Y-78.8
X107.9Y-137.8
X108.4Y-38.3
X108.4Y-97.3
X109.242Y-49.674
X109.242Y-108.674
X109.4Y-43.7
X109.4Y-102.7
X109.75Y-55.2
X109.75Y-56.4
X109.75Y-114.2
X109.75Y-115.4
X110.2Y-38.1
X110.2Y-97.1
X110.3Y-43.0
X110.3Y-102.0
X111.205Y-49.682
X111.205Y-108.682
X111.3Y-43.7
X111.3Y-102.7
X112.2Y-69.9
X112.2Y-128.9
X112.6Y-67.9
X112.6Y-126.9
X112.9Y-43.7
X112.9Y-102.7
X113.205Y-49.682
X113.205Y-108.682
X113.7Y-67.65
X113.7Y-126.65
X113.8Y-43.0
X113.8Y-102.0
X113.9Y-74.3
X113.9Y-76.0
X113.9Y-133.3
X113.9Y-135.0
X114.8Y-43.7
X114.8Y-102.7
X115.8Y-36.3
X115.8Y-41.4
X115.8Y-95.3
X115.8Y-100.4
X115.801Y-42.9
X115.801Y-101.9
X115.9Y-76.0
X115.9Y-135.0
X116.353Y-50.629
X116.353Y-109.629
X117.0Y-52.25
X117.0Y-53.25
X117.0Y-54.25
X117.0Y-55.25
X117.0Y-111.25
X117.0Y-112.25
X117.0Y-113.25
X117.0Y-114.25
X117.3Y-43.4
X117.3Y-102.4
X117.6Y-38.7
X117.6Y-97.7
X117.9Y-76.0
X117.9Y-135.0
X119.35Y-72.3
X119.35Y-131.3
X121.0Y-61.45
X121.0Y-120.45
X121.3Y-64.2
X121.3Y-123.2
X121.9Y-56.4
X121.9Y-60.15
X121.9Y-115.4
X121.9Y-119.15
X122.4Y-54.4
X122.4Y-113.4
X122.9Y-39.05
X122.9Y-98.05
X123.135Y-61.9
X123.135Y-120.9
X124.15Y-49.9
X124.15Y-108.9
X124.75Y-48.25
X124.75Y-107.25
X125.75Y-66.7
X125.75Y-68.9
X125.75Y-125.7
X125.75Y-127.9
X126.05Y-51.2
X126.05Y-110.2
X126.4Y-45.0
X126.4Y-104.0
X127.0Y-59.2
X127.0Y-118.2
X128.5Y-46.7
X128.5Y-105.7
X129.65Y-63.35
X129.65Y-122.35
X130.6Y-61.9
X130.6Y-120.9
X130.65Y-62.85
X130.65Y-121.85
X131.4Y-70.75
X131.4Y-129.75
X134.769Y-46.537
X134.769Y-105.537
X134.9Y-43.0
X134.9Y-49.9
X134.9Y-57.7
X134.9Y-102.0
X134.9Y-108.9
X134.9Y-116.7
X135.8Y-63.0
X135.8Y-122.0
X136.5Y-66.3
X136.5Y-72.9
X136.5Y-125.3
X136.5Y-131.9
X136.9Y-63.0
X136.9Y-122.0
X137.3Y-78.6
X137.3Y-137.6
X137.6Y-51.0
X137.6Y-110.0
X138.0Y-48.2
X138.0Y-107.2
X139.7Y-67.0
X139.7Y-126.0
X140.675Y-62.905
X140.675Y-121.905
X141.847Y-46.74
X141.847Y-105.74
X142.15Y-48.0
X142.15Y-107.0
X142.3Y-61.8
X142.3Y-120.8
X143.692Y-63.105
X143.692Y-122.105
X143.774Y-47.3
X143.774Y-106.3
X145.6Y-74.3
X145.6Y-133.3
X145.8Y-69.8
X145.8Y-128.8
X154.8Y-39.5
X154.8Y-40.8
X154.8Y-42.0
X154.8Y-98.5
X154.8Y-99.8
X154.8Y-101.0
X156.0Y-39.5
X156.0Y-40.8
X156.0Y-42.0
X156.0Y-83.1
X156.0Y-98.5
X156.0Y-99.8
X156.0Y-101.0
X156.0Y-142.1
X156.1Y-55.9
X156.1Y-114.9
X156.2Y-66.05
X156.2Y-125.05
X156.8Y-52.2
X156.8Y-111.2
X156.9Y-60.3
X156.9Y-119.3
X157.2Y-39.5
X157.2Y-40.8
X157.2Y-42.0
X157.2Y-98.5
X157.2Y-99.8
X157.2Y-101.0
X157.45Y-80.35
X157.45Y-139.35
X158.066Y-60.621
X158.066Y-119.621
X158.16Y-62.65
X158.16Y-121.65
X158.95Y-36.8
X158.95Y-38.0
X158.95Y-79.8
X158.95Y-95.8
X158.95Y-97.0
X158.95Y-138.8
X159.3Y-51.1
X159.3Y-110.1
X159.41Y-65.3
X159.41Y-124.3
X159.755Y-76.955
X159.755Y-135.955
X160.2Y-36.8
X160.2Y-38.0
X160.2Y-95.8
X160.2Y-97.0
X160.9Y-72.45
X160.9Y-77.15
X160.9Y-80.4
X160.9Y-131.45
X160.9Y-136.15
X160.9Y-139.4
X161.101Y-64.745
X161.101Y-123.745
X161.2Y-41.7
X161.2Y-100.7
X161.4Y-38.0
X161.4Y-97.0
X162.688Y-56.698
X162.688Y-115.698
X163.0Y-51.6
X163.0Y-81.8
X163.0Y-110.6
X163.0Y-140.8
X163.15Y-48.425
X163.15Y-107.425
X163.275Y-60.675
X163.275Y-119.675
X163.5Y-54.6
X163.5Y-113.6
X163.531Y-55.999
X163.531Y-114.999
X163.707Y-44.225
X163.707Y-103.225
X164.1Y-36.0
X164.1Y-95.0
X164.284Y-55.299
X164.284Y-114.299
X164.3Y-53.8
X164.3Y-112.8
X164.6Y-61.4
X164.6Y-120.4
X164.925Y-45.0
X164.925Y-104.0
X165.1Y-70.9
X165.1Y-129.9
X165.2Y-76.3
X165.2Y-135.3
X165.9Y-50.2
X165.9Y-109.2
X166.2Y-45.0
X166.2Y-104.0
X166.85Y-38.85
X166.85Y-97.85
X167.6Y-72.3
X167.6Y-74.3
X167.6Y-76.3
X167.6Y-131.3
X167.6Y-133.3
X167.6Y-135.3
X167.7Y-81.6
X167.7Y-140.6
X167.78Y-40.9
X167.78Y-43.5
X167.78Y-99.9
X167.78Y-102.5
X168.1Y-56.0
X168.1Y-115.0
X168.4Y-46.3
X168.4Y-105.3
X169.7Y-47.2
X169.7Y-106.2
X169.75Y-56.0
X169.75Y-115.0
X170.5Y-41.153
X170.5Y-100.153
X170.524Y-37.554
X170.524Y-96.554
X170.8Y-82.8
X170.8Y-141.8
X171.3Y-80.741
X171.3Y-139.741
X172.15Y-53.6
X172.15Y-112.6
X172.2Y-64.2
X172.2Y-123.2
X172.35Y-49.521
X172.35Y-108.521
X172.749Y-37.196
X172.749Y-96.196
X173.0Y-72.2
X173.0Y-131.2
X173.118Y-80.105
X173.118Y-139.105
X173.65Y-39.4
X173.65Y-98.4
X173.9Y-38.3
X173.9Y-97.3
X174.155Y-37.055
X174.155Y-96.055
X174.187Y-40.243
X174.187Y-99.243
X174.361Y-80.173
X174.361Y-139.173
X174.6Y-64.2
X174.6Y-123.2
X174.7Y-74.25
X174.7Y-133.25
X174.895Y-76.946
X174.895Y-135.946
X175.201Y-49.668
X175.201Y-108.668
X175.25Y-70.8
X175.25Y-129.8
X175.7Y-75.2
X175.7Y-134.2
X175.899Y-41.43
X175.899Y-100.43
X175.9Y-78.8
X175.9Y-137.8
X176.4Y-38.3
X176.4Y-97.3
X177.242Y-49.674
X177.242Y-108.674
X177.4Y-43.7
X177.4Y-102.7
X177.75Y-55.2
X177.75Y-56.4
X177.75Y-114.2
X177.75Y-115.4
X178.2Y-38.1
X178.2Y-97.1
X178.3Y-43.0
X178.3Y-102.0
X179.205Y-49.682
X179.205Y-108.682
X179.3Y-43.7
X179.3Y-102.7
X180.2Y-69.9
X180.2Y-128.9
X180.6Y-67.9
X180.6Y-126.9
X180.9Y-43.7
X180.9Y-102.7
X181.205Y-49.682
X181.205Y-108.682
X181.7Y-67.65
X181.7Y-126.65
X181.8Y-43.0
X181.8Y-102.0
X181.9Y-74.3
X181.9Y-76.0
X181.9Y-133.3
X181.9Y-135.0
X182.8Y-43.7
X182.8Y-102.7
X183.8Y-36.3
X183.8Y-41.4
X183.8Y-95.3
X183.8Y-100.4
X183.801Y-42.9
X183.801Y-101.9
X183.9Y-76.0
X183.9Y-135.0
X184.353Y-50.629
X184.353Y-109.629
X185.0Y-52.25
X185.0Y-53.25
X185.0Y-54.25
X185.0Y-55.25
X185.0Y-111.25
X185.0Y-112.25
X185.0Y-113.25
X185.0Y-114.25
X185.3Y-43.4
X185.3Y-102.4
X185.6Y-38.7
X185.6Y-97.7
X185.9Y-76.0
X185.9Y-135.0
X187.35Y-72.3
X187.35Y-131.3
X189.0Y-61.45
X189.0Y-120.45
X189.3Y-64.2
X189.3Y-123.2
X189.9Y-56.4
X189.9Y-60.15
X189.9Y-115.4
X189.9Y-119.15
X190.4Y-54.4
X190.4Y-113.4
X190.9Y-39.05
X190.9Y-98.05
X191.135Y-61.9
X191.135Y-120.9
X192.15Y-49.9
X192.15Y-108.9
X192.75Y-48.25
X192.75Y-107.25
X193.75Y-66.7
X193.75Y-68.9
X193.75Y-125.7
X193.75Y-127.9
X194.05Y-51.2
X194.05Y-110.2
X194.4Y-45.0
X194.4Y-104.0
X195.0Y-59.2
X195.0Y-118.2
X196.5Y-46.7
X196.5Y-105.7
X197.65Y-63.35
X197.65Y-122.35
X198.6Y-61.9
X198.6Y-120.9
X198.65Y-62.85
X198.65Y-121.85
X199.4Y-70.75
X199.4Y-129.75
X202.769Y-46.537
X202.769Y-105.537
X202.9Y-43.0
X202.9Y-49.9
X202.9Y-57.7
X202.9Y-102.0
X202.9Y-108.9
X202.9Y-116.7
X203.8Y-63.0
X203.8Y-122.0
X204.5Y-66.3
X204.5Y-72.9
X204.5Y-125.3
X204.5Y-131.9
X204.9Y-63.0
X204.9Y-122.0
X205.3Y-78.6
X205.3Y-137.6
X205.6Y-51.0
X205.6Y-110.0
X206.0Y-48.2
X206.0Y-107.2
X207.7Y-67.0
X207.7Y-126.0
X208.675Y-62.905
X208.675Y-121.905
X209.847Y-46.74
X209.847Y-105.74
X210.15Y-48.0
X210.15Y-107.0
X210.3Y-61.8
X210.3Y-120.8
X211.692Y-63.105
X211.692Y-122.105
X211.774Y-47.3
X211.774Y-106.3
X213.6Y-74.3
X213.6Y-133.3
X213.8Y-69.8
X213.8Y-128.8
T3
X102.25Y-42.8
X102.25Y-101.8
X102.858Y-39.353
X102.858Y-98.353
X170.25Y-42.8
X170.25Y-101.8
X170.858Y-39.353
X170.858Y-98.353
T4
X89.46Y-47.7
X89.46Y-106.7
X92.0Y-47.7
X92.0Y-106.7
X139.25Y-79.36
X139.25Y-81.9
X139.25Y-138.36
X139.25Y-140.9
X157.46Y-47.7
X157.46Y-106.7
X160.0Y-47.7
X160.0Y-106.7
X207.25Y-79.36
X207.25Y-81.9
X207.25Y-138.36
X207.25Y-140.9
T5
X84.92Y-67.67
X84.92Y-70.21
X84.92Y-72.75
X84.92Y-75.29
X84.92Y-126.67
X84.92Y-129.21
X84.92Y-131.75
X84.92Y-134.29
X87.48Y-67.67
X87.48Y-70.21
X87.48Y-72.75
X87.48Y-75.29
X87.48Y-126.67
X87.48Y-129.21
X87.48Y-131.75
X87.48Y-134.29
X90.02Y-67.67
X90.02Y-70.21
X90.02Y-72.75
X90.02Y-75.29
X90.02Y-126.67
X90.02Y-129.21
X90.02Y-131.75
X90.02Y-134.29
X90.37Y-30.23
X90.37Y-32.77
X90.37Y-89.23
X90.37Y-91.77
X92.91Y-30.23
X92.91Y-32.77
X92.91Y-89.23
X92.91Y-91.77
X95.45Y-30.23
X95.45Y-32.77
X95.45Y-89.23
X95.45Y-91.77
X97.99Y-30.23
X97.99Y-32.77
X97.99Y-89.23
X97.99Y-91.77
X100.53Y-30.23
X100.53Y-32.77
X100.53Y-89.23
X100.53Y-91.77
X103.07Y-30.23
X103.07Y-32.77
X103.07Y-89.23
X103.07Y-91.77
X105.61Y-30.23
X105.61Y-32.77
X105.61Y-89.23
X105.61Y-91.77
X108.15Y-30.23
X108.15Y-32.77
X108.15Y-89.23
X108.15Y-91.77
X110.69Y-30.23
X110.69Y-32.77
X110.69Y-89.23
X110.69Y-91.77
X113.23Y-30.23
X113.23Y-32.77
X113.23Y-89.23
X113.23Y-91.77
X115.77Y-30.23
X115.77Y-32.77
X115.77Y-89.23
X115.77Y-91.77
X118.31Y-30.23
X118.31Y-32.77
X118.31Y-89.23
X118.31Y-91.77
X120.85Y-30.23
X120.85Y-32.77
X120.85Y-89.23
X120.85Y-91.77
X123.39Y-30.23
X123.39Y-32.77
X123.39Y-89.23
X123.39Y-91.77
X125.93Y-30.23
X125.93Y-32.77
X125.93Y-89.23
X125.93Y-91.77
X128.47Y-30.23
X128.47Y-32.77
X128.47Y-89.23
X128.47Y-91.77
X131.01Y-30.23
X131.01Y-32.77
X131.01Y-89.23
X131.01Y-91.77
X133.55Y-30.23
X133.55Y-32.77
X133.55Y-89.23
X133.55Y-91.77
X136.09Y-30.23
X136.09Y-32.77
X136.09Y-89.23
X136.09Y-91.77
X138.63Y-30.23
X138.63Y-32.77
X138.63Y-89.23
X138.63Y-91.77
X152.92Y-67.67
X152.92Y-70.21
X152.92Y-72.75
X152.92Y-75.29
X152.92Y-126.67
X152.92Y-129.21
X152.92Y-131.75
X152.92Y-134.29
X155.48Y-67.67
X155.48Y-70.21
X155.48Y-72.75
X155.48Y-75.29
X155.48Y-126.67
X155.48Y-129.21
X155.48Y-131.75
X155.48Y-134.29
X158.02Y-67.67
X158.02Y-70.21
X158.02Y-72.75
X158.02Y-75.29
X158.02Y-126.67
X158.02Y-129.21
X158.02Y-131.75
X158.02Y-134.29
X158.37Y-30.23
X158.37Y-32.77
X158.37Y-89.23
X158.37Y-91.77
X160.91Y-30.23
X160.91Y-32.77
X160.91Y-89.23
X160.91Y-91.77
X163.45Y-30.23
X163.45Y-32.77
X163.45Y-89.23
X163.45Y-91.77
X165.99Y-30.23
X165.99Y-32.77
X165.99Y-89.23
X165.99Y-91.77
X168.53Y-30.23
X168.53Y-32.77
X168.53Y-89.23
X168.53Y-91.77
X171.07Y-30.23
X171.07Y-32.77
X171.07Y-89.23
X171.07Y-91.77
X173.61Y-30.23
X173.61Y-32.77
X173.61Y-89.23
X173.61Y-91.77
X176.15Y-30.23
X176.15Y-32.77
X176.15Y-89.23
X176.15Y-91.77
X178.69Y-30.23
X178.69Y-32.77
X178.69Y-89.23
X178.69Y-91.77
X181.23Y-30.23
X181.23Y-32.77
X181.23Y-89.23
X181.23Y-91.77
X183.77Y-30.23
X183.77Y-32.77
X183.77Y-89.23
X183.77Y-91.77
X186.31Y-30.23
X186.31Y-32.77
X186.31Y-89.23
X186.31Y-91.77
X188.85Y-30.23
X188.85Y-32.77
X188.85Y-89.23
X188.85Y-91.77
X191.39Y-30.23
X191.39Y-32.77
X191.39Y-89.23
X191.39Y-91.77
X193.93Y-30.23
X193.93Y-32.77
X193.93Y-89.23
X193.93Y-91.77
X196.47Y-30.23
X196.47Y-32.77
X196.47Y-89.23
X196.47Y-91.77
X199.01Y-30.23
X199.01Y-32.77
X199.01Y-89.23
X199.01Y-91.77
X201.55Y-30.23
X201.55Y-32.77
X201.55Y-89.23
X201.55Y-91.77
X204.09Y-30.23
X204.09Y-32.77
X204.09Y-89.23
X204.09Y-91.77
X206.63Y-30.23
X206.63Y-32.77
X206.63Y-89.23
X206.63Y-91.77
T6
X95.3Y-79.167
X95.3Y-138.167
X100.3Y-79.167
X100.3Y-138.167
X110.6Y-79.167
X110.6Y-138.167
X115.6Y-79.167
X115.6Y-138.167
X123.7Y-79.067
X123.7Y-138.067
X128.7Y-79.067
X128.7Y-138.067
X141.968Y-69.8
X141.968Y-74.8
X141.968Y-128.8
X141.968Y-133.8
X142.0Y-54.7
X142.0Y-59.7
X142.0Y-113.7
X142.0Y-118.7
X142.067Y-39.7
X142.067Y-44.7
X142.067Y-98.7
X142.067Y-103.7
X163.3Y-79.167
X163.3Y-138.167
X168.3Y-79.167
X168.3Y-138.167
X178.6Y-79.167
X178.6Y-138.167
X183.6Y-79.167
X183.6Y-138.167
X191.7Y-79.067
X191.7Y-138.067
X196.7Y-79.067
X196.7Y-138.067
X209.968Y-69.8
X209.968Y-74.8
X209.968Y-128.8
X209.968Y-133.8
X210.0Y-54.7
X210.0Y-59.7
X210.0Y-113.7
X210.0Y-118.7
X210.067Y-39.7
X210.067Y-44.7
X210.067Y-98.7
X210.067Y-103.7
M30
