%TF.GenerationSoftware,KiCad,Pcbnew,9.0.2+dfsg-1*%
%TF.CreationDate,2026-01-13T12:23:41+00:00*%
%TF.ProjectId,panel,70616e65-6c2e-46b6-9963-61645f706362,rev?*%
%TF.SameCoordinates,Original*%
%TF.FileFunction,Soldermask,Top*%
%TF.FilePolarity,Negative*%
%FSLAX46Y46*%
G04 Gerber Fmt 4.6, Leading zero omitted, Abs format (unit mm)*
G04 Created by KiCad (PCBNEW 9.0.2+dfsg-1) date 2026-01-13 12:23:41*
%MOMM*%
%LPD*%
G01*
G04 APERTURE LIST*
G04 Aperture macros list*
%AMRoundRect*
0 Rectangle with rounded corners*
0 $1 Rounding radius*
0 $2 $3 $4 $5 $6 $7 $8 $9 X,Y pos of 4 corners*
0 Add a 4 corners polygon primitive as box body*
4,1,4,$2,$3,$4,$5,$6,$7,$8,$9,$2,$3,0*
0 Add four circle primitives for the rounded corners*
1,1,$1+$1,$2,$3*
1,1,$1+$1,$4,$5*
1,1,$1+$1,$6,$7*
1,1,$1+$1,$8,$9*
0 Add four rect primitives between the rounded corners*
20,1,$1+$1,$2,$3,$4,$5,0*
20,1,$1+$1,$4,$5,$6,$7,0*
20,1,$1+$1,$6,$7,$8,$9,0*
20,1,$1+$1,$8,$9,$2,$3,0*%
%AMFreePoly0*
4,1,23,0.500000,-0.750000,0.000000,-0.750000,0.000000,-0.745722,-0.065263,-0.745722,-0.191342,-0.711940,-0.304381,-0.646677,-0.396677,-0.554381,-0.461940,-0.441342,-0.495722,-0.315263,-0.495722,-0.250000,-0.500000,-0.250000,-0.500000,0.250000,-0.495722,0.250000,-0.495722,0.315263,-0.461940,0.441342,-0.396677,0.554381,-0.304381,0.646677,-0.191342,0.711940,-0.065263,0.745722,0.000000,0.745722,
0.000000,0.750000,0.500000,0.750000,0.500000,-0.750000,0.500000,-0.750000,$1*%
%AMFreePoly1*
4,1,23,0.000000,0.745722,0.065263,0.745722,0.191342,0.711940,0.304381,0.646677,0.396677,0.554381,0.461940,0.441342,0.495722,0.315263,0.495722,0.250000,0.500000,0.250000,0.500000,-0.250000,0.495722,-0.250000,0.495722,-0.315263,0.461940,-0.441342,0.396677,-0.554381,0.304381,-0.646677,0.191342,-0.711940,0.065263,-0.745722,0.000000,-0.745722,0.000000,-0.750000,-0.500000,-0.750000,
-0.500000,0.750000,0.000000,0.750000,0.000000,0.745722,0.000000,0.745722,$1*%
G04 Aperture macros list end*
%ADD10C,6.200000*%
%ADD11RoundRect,0.250000X0.650000X-0.325000X0.650000X0.325000X-0.650000X0.325000X-0.650000X-0.325000X0*%
%ADD12RoundRect,0.225000X0.225000X0.250000X-0.225000X0.250000X-0.225000X-0.250000X0.225000X-0.250000X0*%
%ADD13RoundRect,0.200000X-0.200000X-0.275000X0.200000X-0.275000X0.200000X0.275000X-0.200000X0.275000X0*%
%ADD14FreePoly0,0.000000*%
%ADD15FreePoly1,0.000000*%
%ADD16R,3.600000X2.700000*%
%ADD17RoundRect,0.243750X0.456250X-0.243750X0.456250X0.243750X-0.456250X0.243750X-0.456250X-0.243750X0*%
%ADD18RoundRect,0.250000X-0.650000X0.325000X-0.650000X-0.325000X0.650000X-0.325000X0.650000X0.325000X0*%
%ADD19R,1.700000X1.700000*%
%ADD20O,1.700000X1.700000*%
%ADD21RoundRect,0.250000X1.050000X-1.050000X1.050000X1.050000X-1.050000X1.050000X-1.050000X-1.050000X0*%
%ADD22C,2.600000*%
%ADD23R,0.600000X0.700000*%
%ADD24RoundRect,0.250000X0.325000X0.650000X-0.325000X0.650000X-0.325000X-0.650000X0.325000X-0.650000X0*%
%ADD25RoundRect,0.250000X-0.325000X-0.650000X0.325000X-0.650000X0.325000X0.650000X-0.325000X0.650000X0*%
%ADD26RoundRect,0.243750X0.243750X0.456250X-0.243750X0.456250X-0.243750X-0.456250X0.243750X-0.456250X0*%
%ADD27RoundRect,0.200000X0.275000X-0.200000X0.275000X0.200000X-0.275000X0.200000X-0.275000X-0.200000X0*%
%ADD28RoundRect,0.100000X0.100000X-0.637500X0.100000X0.637500X-0.100000X0.637500X-0.100000X-0.637500X0*%
%ADD29C,2.082800*%
%ADD30RoundRect,0.250000X-0.250000X-0.475000X0.250000X-0.475000X0.250000X0.475000X-0.250000X0.475000X0*%
%ADD31R,1.200000X2.250000*%
%ADD32RoundRect,0.225000X-0.250000X0.225000X-0.250000X-0.225000X0.250000X-0.225000X0.250000X0.225000X0*%
%ADD33RoundRect,0.250000X-1.050000X-1.050000X1.050000X-1.050000X1.050000X1.050000X-1.050000X1.050000X0*%
%ADD34R,3.100000X2.400000*%
%ADD35RoundRect,0.150000X0.150000X-0.737500X0.150000X0.737500X-0.150000X0.737500X-0.150000X-0.737500X0*%
%ADD36R,1.727200X1.727200*%
%ADD37O,1.727200X1.727200*%
%ADD38C,4.950000*%
%ADD39RoundRect,0.225000X0.250000X-0.225000X0.250000X0.225000X-0.250000X0.225000X-0.250000X-0.225000X0*%
%ADD40C,1.500000*%
%ADD41C,1.000000*%
%ADD42C,1.600000*%
G04 APERTURE END LIST*
D10*
%TO.C,PI1*%
X211500000Y-31500000D03*
%TD*%
D11*
%TO.C,C5*%
X168200000Y-44975000D03*
X168200000Y-42025000D03*
%TD*%
D12*
%TO.C,C30*%
X171675000Y-104950000D03*
X170125000Y-104950000D03*
%TD*%
D13*
%TO.C,R44*%
X97425000Y-95400000D03*
X99075000Y-95400000D03*
%TD*%
D14*
%TO.C,JP8*%
X112250000Y-94200000D03*
D15*
X113550000Y-94200000D03*
%TD*%
D16*
%TO.C,L1*%
X88000000Y-95250000D03*
X88000000Y-103550000D03*
%TD*%
%TO.C,L1*%
X156000000Y-95250000D03*
X156000000Y-103550000D03*
%TD*%
D17*
%TO.C,D41*%
X204700000Y-140437500D03*
X204700000Y-138562500D03*
%TD*%
D18*
%TO.C,C1*%
X189300000Y-124425000D03*
X189300000Y-127375000D03*
%TD*%
D19*
%TO.C,J11*%
X139250000Y-81900000D03*
D20*
X139250000Y-79360000D03*
%TD*%
D21*
%TO.C,J10*%
X209967500Y-74800000D03*
D22*
X209967500Y-69800000D03*
%TD*%
D23*
%TO.C,D43*%
X122150000Y-111550000D03*
X120750000Y-111550000D03*
%TD*%
D13*
%TO.C,R40*%
X183175000Y-94200000D03*
X184825000Y-94200000D03*
%TD*%
D24*
%TO.C,C18*%
X165375000Y-47300000D03*
X162425000Y-47300000D03*
%TD*%
D13*
%TO.C,R39*%
X183175000Y-37500000D03*
X184825000Y-37500000D03*
%TD*%
D10*
%TO.C,PI1*%
X143500000Y-90500000D03*
%TD*%
D13*
%TO.C,R44*%
X165425000Y-95400000D03*
X167075000Y-95400000D03*
%TD*%
D17*
%TO.C,D31*%
X172550000Y-141837500D03*
X172550000Y-139962500D03*
%TD*%
D19*
%TO.C,J9*%
X92000000Y-47700000D03*
D20*
X89460000Y-47700000D03*
%TD*%
D25*
%TO.C,C15*%
X196225000Y-48800000D03*
X199175000Y-48800000D03*
%TD*%
D26*
%TO.C,D1*%
X130572500Y-125800000D03*
X128697500Y-125800000D03*
%TD*%
D21*
%TO.C,J10*%
X209967500Y-133800000D03*
D22*
X209967500Y-128800000D03*
%TD*%
D21*
%TO.C,J7*%
X142000000Y-59700000D03*
D22*
X142000000Y-54700000D03*
%TD*%
D18*
%TO.C,C3*%
X172200000Y-124425000D03*
X172200000Y-127375000D03*
%TD*%
D27*
%TO.C,R28*%
X186000000Y-100225000D03*
X186000000Y-98575000D03*
%TD*%
D28*
%TO.C,U2*%
X107750000Y-104687500D03*
X108400000Y-104687500D03*
X109050000Y-104687500D03*
X109700000Y-104687500D03*
X110350000Y-104687500D03*
X111000000Y-104687500D03*
X111650000Y-104687500D03*
X112300000Y-104687500D03*
X112950000Y-104687500D03*
X113600000Y-104687500D03*
X114250000Y-104687500D03*
X114900000Y-104687500D03*
X115550000Y-104687500D03*
X116200000Y-104687500D03*
X116200000Y-98962500D03*
X115550000Y-98962500D03*
X114900000Y-98962500D03*
X114250000Y-98962500D03*
X113600000Y-98962500D03*
X112950000Y-98962500D03*
X112300000Y-98962500D03*
X111650000Y-98962500D03*
X111000000Y-98962500D03*
X110350000Y-98962500D03*
X109700000Y-98962500D03*
X109050000Y-98962500D03*
X108400000Y-98962500D03*
X107750000Y-98962500D03*
%TD*%
D18*
%TO.C,C3*%
X104200000Y-124425000D03*
X104200000Y-127375000D03*
%TD*%
D26*
%TO.C,D30*%
X146137500Y-65800000D03*
X144262500Y-65800000D03*
%TD*%
D12*
%TO.C,C6*%
X95775000Y-104400000D03*
X94225000Y-104400000D03*
%TD*%
D26*
%TO.C,D20*%
X146137500Y-107750000D03*
X144262500Y-107750000D03*
%TD*%
D29*
%TO.C,J1*%
X84920000Y-126670000D03*
X84920000Y-129210000D03*
X84920000Y-131750000D03*
X84920000Y-134290000D03*
%TD*%
D21*
%TO.C,J8*%
X142067500Y-103700000D03*
D22*
X142067500Y-98700000D03*
%TD*%
D30*
%TO.C,C22*%
X168600000Y-95200000D03*
X170500000Y-95200000D03*
%TD*%
D17*
%TO.C,D31*%
X104550000Y-141837500D03*
X104550000Y-139962500D03*
%TD*%
D11*
%TO.C,C5*%
X100200000Y-103975000D03*
X100200000Y-101025000D03*
%TD*%
D31*
%TO.C,SW1*%
X159400000Y-112925000D03*
X156860000Y-112925000D03*
X156860000Y-121675000D03*
X159400000Y-121675000D03*
X161940000Y-112925000D03*
X161940000Y-121675000D03*
%TD*%
D19*
%TO.C,J9*%
X92000000Y-106700000D03*
D20*
X89460000Y-106700000D03*
%TD*%
D32*
%TO.C,C23*%
X167800000Y-97175000D03*
X167800000Y-98725000D03*
%TD*%
D25*
%TO.C,C15*%
X196225000Y-107800000D03*
X199175000Y-107800000D03*
%TD*%
D33*
%TO.C,J4*%
X95300000Y-79167500D03*
D22*
X100300000Y-79167500D03*
%TD*%
D31*
%TO.C,SW1*%
X159400000Y-53925000D03*
X156860000Y-53925000D03*
X156860000Y-62675000D03*
X159400000Y-62675000D03*
X161940000Y-53925000D03*
X161940000Y-62675000D03*
%TD*%
D10*
%TO.C,PI3*%
X153500000Y-31500000D03*
%TD*%
D34*
%TO.C,U1*%
X164300000Y-99950000D03*
D35*
X162395000Y-102512500D03*
X163665000Y-102512500D03*
X164935000Y-102512500D03*
X166205000Y-102512500D03*
X166205000Y-97387500D03*
X164935000Y-97387500D03*
X163665000Y-97387500D03*
X162395000Y-97387500D03*
%TD*%
D21*
%TO.C,J8*%
X142067500Y-44700000D03*
D22*
X142067500Y-39700000D03*
%TD*%
D18*
%TO.C,C11*%
X106600000Y-65425000D03*
X106600000Y-68375000D03*
%TD*%
D36*
%TO.C,J2*%
X90370000Y-91770000D03*
D37*
X90370000Y-89230000D03*
X92910000Y-91770000D03*
X92910000Y-89230000D03*
X95450000Y-91770000D03*
X95450000Y-89230000D03*
X97990000Y-91770000D03*
X97990000Y-89230000D03*
X100530000Y-91770000D03*
X100530000Y-89230000D03*
X103070000Y-91770000D03*
X103070000Y-89230000D03*
X105610000Y-91770000D03*
X105610000Y-89230000D03*
X108150000Y-91770000D03*
X108150000Y-89230000D03*
X110690000Y-91770000D03*
X110690000Y-89230000D03*
X113230000Y-91770000D03*
X113230000Y-89230000D03*
X115770000Y-91770000D03*
X115770000Y-89230000D03*
X118310000Y-91770000D03*
X118310000Y-89230000D03*
X120850000Y-91770000D03*
X120850000Y-89230000D03*
X123390000Y-91770000D03*
X123390000Y-89230000D03*
X125930000Y-91770000D03*
X125930000Y-89230000D03*
X128470000Y-91770000D03*
X128470000Y-89230000D03*
X131010000Y-91770000D03*
X131010000Y-89230000D03*
X133550000Y-91770000D03*
X133550000Y-89230000D03*
X136090000Y-91770000D03*
X136090000Y-89230000D03*
X138630000Y-91770000D03*
X138630000Y-89230000D03*
%TD*%
D38*
%TO.C,PI4*%
X153500000Y-80500000D03*
%TD*%
D29*
%TO.C,J6*%
X158020000Y-134290000D03*
X155480000Y-134290000D03*
X158020000Y-131750000D03*
X155480000Y-131750000D03*
X158020000Y-129210000D03*
X155480000Y-129210000D03*
X158020000Y-126670000D03*
X155480000Y-126670000D03*
%TD*%
D17*
%TO.C,D19*%
X106450000Y-82837500D03*
X106450000Y-80962500D03*
%TD*%
D33*
%TO.C,J3*%
X191700000Y-79067500D03*
D22*
X196700000Y-79067500D03*
%TD*%
D17*
%TO.C,D4*%
X159350000Y-82837500D03*
X159350000Y-80962500D03*
%TD*%
D19*
%TO.C,J9*%
X160000000Y-47700000D03*
D20*
X157460000Y-47700000D03*
%TD*%
D36*
%TO.C,J2*%
X90370000Y-32770000D03*
D37*
X90370000Y-30230000D03*
X92910000Y-32770000D03*
X92910000Y-30230000D03*
X95450000Y-32770000D03*
X95450000Y-30230000D03*
X97990000Y-32770000D03*
X97990000Y-30230000D03*
X100530000Y-32770000D03*
X100530000Y-30230000D03*
X103070000Y-32770000D03*
X103070000Y-30230000D03*
X105610000Y-32770000D03*
X105610000Y-30230000D03*
X108150000Y-32770000D03*
X108150000Y-30230000D03*
X110690000Y-32770000D03*
X110690000Y-30230000D03*
X113230000Y-32770000D03*
X113230000Y-30230000D03*
X115770000Y-32770000D03*
X115770000Y-30230000D03*
X118310000Y-32770000D03*
X118310000Y-30230000D03*
X120850000Y-32770000D03*
X120850000Y-30230000D03*
X123390000Y-32770000D03*
X123390000Y-30230000D03*
X125930000Y-32770000D03*
X125930000Y-30230000D03*
X128470000Y-32770000D03*
X128470000Y-30230000D03*
X131010000Y-32770000D03*
X131010000Y-30230000D03*
X133550000Y-32770000D03*
X133550000Y-30230000D03*
X136090000Y-32770000D03*
X136090000Y-30230000D03*
X138630000Y-32770000D03*
X138630000Y-30230000D03*
%TD*%
D29*
%TO.C,J6*%
X90020000Y-75290000D03*
X87480000Y-75290000D03*
X90020000Y-72750000D03*
X87480000Y-72750000D03*
X90020000Y-70210000D03*
X87480000Y-70210000D03*
X90020000Y-67670000D03*
X87480000Y-67670000D03*
%TD*%
D28*
%TO.C,U2*%
X175750000Y-104687500D03*
X176400000Y-104687500D03*
X177050000Y-104687500D03*
X177700000Y-104687500D03*
X178350000Y-104687500D03*
X179000000Y-104687500D03*
X179650000Y-104687500D03*
X180300000Y-104687500D03*
X180950000Y-104687500D03*
X181600000Y-104687500D03*
X182250000Y-104687500D03*
X182900000Y-104687500D03*
X183550000Y-104687500D03*
X184200000Y-104687500D03*
X184200000Y-98962500D03*
X183550000Y-98962500D03*
X182900000Y-98962500D03*
X182250000Y-98962500D03*
X181600000Y-98962500D03*
X180950000Y-98962500D03*
X180300000Y-98962500D03*
X179650000Y-98962500D03*
X179000000Y-98962500D03*
X178350000Y-98962500D03*
X177700000Y-98962500D03*
X177050000Y-98962500D03*
X176400000Y-98962500D03*
X175750000Y-98962500D03*
%TD*%
D38*
%TO.C,PI2*%
X143500000Y-80500000D03*
%TD*%
D19*
%TO.C,J9*%
X160000000Y-106700000D03*
D20*
X157460000Y-106700000D03*
%TD*%
D18*
%TO.C,C1*%
X121300000Y-124425000D03*
X121300000Y-127375000D03*
%TD*%
D26*
%TO.C,D5*%
X146137500Y-63800000D03*
X144262500Y-63800000D03*
%TD*%
D14*
%TO.C,JP7*%
X180250000Y-37500000D03*
D15*
X181550000Y-37500000D03*
%TD*%
D33*
%TO.C,J4*%
X95300000Y-138167500D03*
D22*
X100300000Y-138167500D03*
%TD*%
D33*
%TO.C,J4*%
X163300000Y-79167500D03*
D22*
X168300000Y-79167500D03*
%TD*%
D39*
%TO.C,C27*%
X190700000Y-61825000D03*
X190700000Y-60275000D03*
%TD*%
D25*
%TO.C,C14*%
X162425000Y-108800000D03*
X165375000Y-108800000D03*
%TD*%
D11*
%TO.C,C5*%
X100200000Y-44975000D03*
X100200000Y-42025000D03*
%TD*%
D26*
%TO.C,D5*%
X214137500Y-63800000D03*
X212262500Y-63800000D03*
%TD*%
D10*
%TO.C,PI3*%
X85500000Y-90500000D03*
%TD*%
D26*
%TO.C,D38*%
X130572500Y-64800000D03*
X128697500Y-64800000D03*
%TD*%
D16*
%TO.C,L1*%
X88000000Y-36250000D03*
X88000000Y-44550000D03*
%TD*%
D21*
%TO.C,J8*%
X210067500Y-103700000D03*
D22*
X210067500Y-98700000D03*
%TD*%
D26*
%TO.C,D5*%
X214137500Y-122800000D03*
X212262500Y-122800000D03*
%TD*%
%TO.C,D37*%
X146137500Y-50750000D03*
X144262500Y-50750000D03*
%TD*%
D17*
%TO.C,D4*%
X91350000Y-141837500D03*
X91350000Y-139962500D03*
%TD*%
D12*
%TO.C,C30*%
X103675000Y-104950000D03*
X102125000Y-104950000D03*
%TD*%
D14*
%TO.C,JP8*%
X180250000Y-35200000D03*
D15*
X181550000Y-35200000D03*
%TD*%
D23*
%TO.C,D43*%
X122150000Y-52550000D03*
X120750000Y-52550000D03*
%TD*%
D16*
%TO.C,L1*%
X156000000Y-36250000D03*
X156000000Y-44550000D03*
%TD*%
D24*
%TO.C,C18*%
X97375000Y-47300000D03*
X94425000Y-47300000D03*
%TD*%
D32*
%TO.C,C23*%
X99800000Y-38175000D03*
X99800000Y-39725000D03*
%TD*%
D33*
%TO.C,J4*%
X163300000Y-138167500D03*
D22*
X168300000Y-138167500D03*
%TD*%
D29*
%TO.C,J1*%
X152920000Y-126670000D03*
X152920000Y-129210000D03*
X152920000Y-131750000D03*
X152920000Y-134290000D03*
%TD*%
D21*
%TO.C,J7*%
X210000000Y-118700000D03*
D22*
X210000000Y-113700000D03*
%TD*%
D25*
%TO.C,C14*%
X94425000Y-108800000D03*
X97375000Y-108800000D03*
%TD*%
D13*
%TO.C,R44*%
X165425000Y-36400000D03*
X167075000Y-36400000D03*
%TD*%
D14*
%TO.C,JP8*%
X112250000Y-35200000D03*
D15*
X113550000Y-35200000D03*
%TD*%
D26*
%TO.C,D1*%
X198572500Y-66800000D03*
X196697500Y-66800000D03*
%TD*%
D17*
%TO.C,D31*%
X104550000Y-82837500D03*
X104550000Y-80962500D03*
%TD*%
D11*
%TO.C,C5*%
X168200000Y-103975000D03*
X168200000Y-101025000D03*
%TD*%
D40*
%TO.C,KiKit_TO_2*%
X220500000Y-22500000D03*
%TD*%
D17*
%TO.C,D41*%
X204700000Y-81437500D03*
X204700000Y-79562500D03*
%TD*%
D21*
%TO.C,J7*%
X210000000Y-59700000D03*
D22*
X210000000Y-54700000D03*
%TD*%
D13*
%TO.C,R44*%
X97425000Y-36400000D03*
X99075000Y-36400000D03*
%TD*%
D29*
%TO.C,J6*%
X90020000Y-134290000D03*
X87480000Y-134290000D03*
X90020000Y-131750000D03*
X87480000Y-131750000D03*
X90020000Y-129210000D03*
X87480000Y-129210000D03*
X90020000Y-126670000D03*
X87480000Y-126670000D03*
%TD*%
D41*
%TO.C,KiKit_FID_T_1*%
X79000000Y-22500000D03*
%TD*%
D14*
%TO.C,JP7*%
X112250000Y-37500000D03*
D15*
X113550000Y-37500000D03*
%TD*%
D38*
%TO.C,PI4*%
X85500000Y-139500000D03*
%TD*%
D28*
%TO.C,U2*%
X107750000Y-45687500D03*
X108400000Y-45687500D03*
X109050000Y-45687500D03*
X109700000Y-45687500D03*
X110350000Y-45687500D03*
X111000000Y-45687500D03*
X111650000Y-45687500D03*
X112300000Y-45687500D03*
X112950000Y-45687500D03*
X113600000Y-45687500D03*
X114250000Y-45687500D03*
X114900000Y-45687500D03*
X115550000Y-45687500D03*
X116200000Y-45687500D03*
X116200000Y-39962500D03*
X115550000Y-39962500D03*
X114900000Y-39962500D03*
X114250000Y-39962500D03*
X113600000Y-39962500D03*
X112950000Y-39962500D03*
X112300000Y-39962500D03*
X111650000Y-39962500D03*
X111000000Y-39962500D03*
X110350000Y-39962500D03*
X109700000Y-39962500D03*
X109050000Y-39962500D03*
X108400000Y-39962500D03*
X107750000Y-39962500D03*
%TD*%
D38*
%TO.C,PI2*%
X211500000Y-139500000D03*
%TD*%
D17*
%TO.C,D4*%
X91350000Y-82837500D03*
X91350000Y-80962500D03*
%TD*%
D38*
%TO.C,PI4*%
X85500000Y-80500000D03*
%TD*%
D18*
%TO.C,C3*%
X104200000Y-65425000D03*
X104200000Y-68375000D03*
%TD*%
D32*
%TO.C,C23*%
X167800000Y-38175000D03*
X167800000Y-39725000D03*
%TD*%
D30*
%TO.C,C22*%
X168600000Y-36200000D03*
X170500000Y-36200000D03*
%TD*%
D26*
%TO.C,D38*%
X198572500Y-64800000D03*
X196697500Y-64800000D03*
%TD*%
%TO.C,D30*%
X214137500Y-124800000D03*
X212262500Y-124800000D03*
%TD*%
D10*
%TO.C,PI3*%
X85500000Y-31500000D03*
%TD*%
D39*
%TO.C,C27*%
X190700000Y-120825000D03*
X190700000Y-119275000D03*
%TD*%
D17*
%TO.C,D41*%
X136700000Y-140437500D03*
X136700000Y-138562500D03*
%TD*%
%TO.C,D4*%
X159350000Y-141837500D03*
X159350000Y-139962500D03*
%TD*%
D27*
%TO.C,R28*%
X118000000Y-100225000D03*
X118000000Y-98575000D03*
%TD*%
D33*
%TO.C,J5*%
X178600000Y-79167500D03*
D22*
X183600000Y-79167500D03*
%TD*%
D18*
%TO.C,C11*%
X174600000Y-65425000D03*
X174600000Y-68375000D03*
%TD*%
D41*
%TO.C,KiKit_FID_T_3*%
X79000000Y-148500046D03*
%TD*%
D17*
%TO.C,D19*%
X106450000Y-141837500D03*
X106450000Y-139962500D03*
%TD*%
D26*
%TO.C,D37*%
X214137500Y-109750000D03*
X212262500Y-109750000D03*
%TD*%
D39*
%TO.C,C27*%
X122700000Y-61825000D03*
X122700000Y-60275000D03*
%TD*%
D10*
%TO.C,PI1*%
X143500000Y-31500000D03*
%TD*%
D36*
%TO.C,J2*%
X158370000Y-32770000D03*
D37*
X158370000Y-30230000D03*
X160910000Y-32770000D03*
X160910000Y-30230000D03*
X163450000Y-32770000D03*
X163450000Y-30230000D03*
X165990000Y-32770000D03*
X165990000Y-30230000D03*
X168530000Y-32770000D03*
X168530000Y-30230000D03*
X171070000Y-32770000D03*
X171070000Y-30230000D03*
X173610000Y-32770000D03*
X173610000Y-30230000D03*
X176150000Y-32770000D03*
X176150000Y-30230000D03*
X178690000Y-32770000D03*
X178690000Y-30230000D03*
X181230000Y-32770000D03*
X181230000Y-30230000D03*
X183770000Y-32770000D03*
X183770000Y-30230000D03*
X186310000Y-32770000D03*
X186310000Y-30230000D03*
X188850000Y-32770000D03*
X188850000Y-30230000D03*
X191390000Y-32770000D03*
X191390000Y-30230000D03*
X193930000Y-32770000D03*
X193930000Y-30230000D03*
X196470000Y-32770000D03*
X196470000Y-30230000D03*
X199010000Y-32770000D03*
X199010000Y-30230000D03*
X201550000Y-32770000D03*
X201550000Y-30230000D03*
X204090000Y-32770000D03*
X204090000Y-30230000D03*
X206630000Y-32770000D03*
X206630000Y-30230000D03*
%TD*%
D25*
%TO.C,C16*%
X196225000Y-110200000D03*
X199175000Y-110200000D03*
%TD*%
%TO.C,C16*%
X128225000Y-110200000D03*
X131175000Y-110200000D03*
%TD*%
D17*
%TO.C,D29*%
X157450000Y-82837500D03*
X157450000Y-80962500D03*
%TD*%
D26*
%TO.C,D30*%
X214137500Y-65800000D03*
X212262500Y-65800000D03*
%TD*%
D38*
%TO.C,PI2*%
X211500000Y-80500000D03*
%TD*%
%TO.C,PI2*%
X143500000Y-139500000D03*
%TD*%
D12*
%TO.C,C6*%
X163775000Y-45400000D03*
X162225000Y-45400000D03*
%TD*%
D39*
%TO.C,C27*%
X122700000Y-120825000D03*
X122700000Y-119275000D03*
%TD*%
D40*
%TO.C,KiKit_TO_3*%
X76500000Y-148500046D03*
%TD*%
D30*
%TO.C,C22*%
X100600000Y-95200000D03*
X102500000Y-95200000D03*
%TD*%
D12*
%TO.C,C30*%
X171675000Y-45950000D03*
X170125000Y-45950000D03*
%TD*%
D25*
%TO.C,C14*%
X162425000Y-49800000D03*
X165375000Y-49800000D03*
%TD*%
D32*
%TO.C,C23*%
X99800000Y-97175000D03*
X99800000Y-98725000D03*
%TD*%
D26*
%TO.C,D20*%
X214137500Y-107750000D03*
X212262500Y-107750000D03*
%TD*%
%TO.C,D37*%
X214137500Y-50750000D03*
X212262500Y-50750000D03*
%TD*%
D21*
%TO.C,J7*%
X142000000Y-118700000D03*
D22*
X142000000Y-113700000D03*
%TD*%
D13*
%TO.C,R40*%
X183175000Y-35200000D03*
X184825000Y-35200000D03*
%TD*%
D23*
%TO.C,D43*%
X190150000Y-52550000D03*
X188750000Y-52550000D03*
%TD*%
D29*
%TO.C,J1*%
X84920000Y-67670000D03*
X84920000Y-70210000D03*
X84920000Y-72750000D03*
X84920000Y-75290000D03*
%TD*%
D34*
%TO.C,U1*%
X96300000Y-40950000D03*
D35*
X94395000Y-43512500D03*
X95665000Y-43512500D03*
X96935000Y-43512500D03*
X98205000Y-43512500D03*
X98205000Y-38387500D03*
X96935000Y-38387500D03*
X95665000Y-38387500D03*
X94395000Y-38387500D03*
%TD*%
D25*
%TO.C,C15*%
X128225000Y-107800000D03*
X131175000Y-107800000D03*
%TD*%
D33*
%TO.C,J3*%
X123700000Y-138067500D03*
D22*
X128700000Y-138067500D03*
%TD*%
D33*
%TO.C,J3*%
X123700000Y-79067500D03*
D22*
X128700000Y-79067500D03*
%TD*%
D17*
%TO.C,D31*%
X172550000Y-82837500D03*
X172550000Y-80962500D03*
%TD*%
D26*
%TO.C,D20*%
X146137500Y-48750000D03*
X144262500Y-48750000D03*
%TD*%
D10*
%TO.C,PI3*%
X153500000Y-90500000D03*
%TD*%
D25*
%TO.C,C14*%
X94425000Y-49800000D03*
X97375000Y-49800000D03*
%TD*%
D33*
%TO.C,J3*%
X191700000Y-138067500D03*
D22*
X196700000Y-138067500D03*
%TD*%
D17*
%TO.C,D19*%
X174450000Y-82837500D03*
X174450000Y-80962500D03*
%TD*%
D19*
%TO.C,J11*%
X207250000Y-81900000D03*
D20*
X207250000Y-79360000D03*
%TD*%
D30*
%TO.C,C22*%
X100600000Y-36200000D03*
X102500000Y-36200000D03*
%TD*%
D13*
%TO.C,R40*%
X115175000Y-94200000D03*
X116825000Y-94200000D03*
%TD*%
D23*
%TO.C,D43*%
X190150000Y-111550000D03*
X188750000Y-111550000D03*
%TD*%
D31*
%TO.C,SW1*%
X91400000Y-112925000D03*
X88860000Y-112925000D03*
X88860000Y-121675000D03*
X91400000Y-121675000D03*
X93940000Y-112925000D03*
X93940000Y-121675000D03*
%TD*%
D17*
%TO.C,D29*%
X89450000Y-141837500D03*
X89450000Y-139962500D03*
%TD*%
D33*
%TO.C,J5*%
X110600000Y-138167500D03*
D22*
X115600000Y-138167500D03*
%TD*%
D13*
%TO.C,R39*%
X115175000Y-37500000D03*
X116825000Y-37500000D03*
%TD*%
D14*
%TO.C,JP7*%
X112250000Y-96500000D03*
D15*
X113550000Y-96500000D03*
%TD*%
D26*
%TO.C,D5*%
X146137500Y-122800000D03*
X144262500Y-122800000D03*
%TD*%
D31*
%TO.C,SW1*%
X91400000Y-53925000D03*
X88860000Y-53925000D03*
X88860000Y-62675000D03*
X91400000Y-62675000D03*
X93940000Y-53925000D03*
X93940000Y-62675000D03*
%TD*%
D25*
%TO.C,C15*%
X128225000Y-48800000D03*
X131175000Y-48800000D03*
%TD*%
D26*
%TO.C,D38*%
X130572500Y-123800000D03*
X128697500Y-123800000D03*
%TD*%
D33*
%TO.C,J5*%
X178600000Y-138167500D03*
D22*
X183600000Y-138167500D03*
%TD*%
D27*
%TO.C,R28*%
X118000000Y-41225000D03*
X118000000Y-39575000D03*
%TD*%
D21*
%TO.C,J10*%
X141967500Y-133800000D03*
D22*
X141967500Y-128800000D03*
%TD*%
D17*
%TO.C,D29*%
X157450000Y-141837500D03*
X157450000Y-139962500D03*
%TD*%
D25*
%TO.C,C16*%
X196225000Y-51200000D03*
X199175000Y-51200000D03*
%TD*%
D26*
%TO.C,D37*%
X146137500Y-109750000D03*
X144262500Y-109750000D03*
%TD*%
D24*
%TO.C,C18*%
X97375000Y-106300000D03*
X94425000Y-106300000D03*
%TD*%
D18*
%TO.C,C1*%
X189300000Y-65425000D03*
X189300000Y-68375000D03*
%TD*%
D13*
%TO.C,R40*%
X115175000Y-35200000D03*
X116825000Y-35200000D03*
%TD*%
D18*
%TO.C,C1*%
X121300000Y-65425000D03*
X121300000Y-68375000D03*
%TD*%
D40*
%TO.C,KiKit_TO_1*%
X76500000Y-22500000D03*
%TD*%
D18*
%TO.C,C11*%
X106600000Y-124425000D03*
X106600000Y-127375000D03*
%TD*%
%TO.C,C3*%
X172200000Y-65425000D03*
X172200000Y-68375000D03*
%TD*%
D26*
%TO.C,D30*%
X146137500Y-124800000D03*
X144262500Y-124800000D03*
%TD*%
%TO.C,D38*%
X198572500Y-123800000D03*
X196697500Y-123800000D03*
%TD*%
D17*
%TO.C,D19*%
X174450000Y-141837500D03*
X174450000Y-139962500D03*
%TD*%
D14*
%TO.C,JP7*%
X180250000Y-96500000D03*
D15*
X181550000Y-96500000D03*
%TD*%
D27*
%TO.C,R28*%
X186000000Y-41225000D03*
X186000000Y-39575000D03*
%TD*%
D13*
%TO.C,R39*%
X115175000Y-96500000D03*
X116825000Y-96500000D03*
%TD*%
D28*
%TO.C,U2*%
X175750000Y-45687500D03*
X176400000Y-45687500D03*
X177050000Y-45687500D03*
X177700000Y-45687500D03*
X178350000Y-45687500D03*
X179000000Y-45687500D03*
X179650000Y-45687500D03*
X180300000Y-45687500D03*
X180950000Y-45687500D03*
X181600000Y-45687500D03*
X182250000Y-45687500D03*
X182900000Y-45687500D03*
X183550000Y-45687500D03*
X184200000Y-45687500D03*
X184200000Y-39962500D03*
X183550000Y-39962500D03*
X182900000Y-39962500D03*
X182250000Y-39962500D03*
X181600000Y-39962500D03*
X180950000Y-39962500D03*
X180300000Y-39962500D03*
X179650000Y-39962500D03*
X179000000Y-39962500D03*
X178350000Y-39962500D03*
X177700000Y-39962500D03*
X177050000Y-39962500D03*
X176400000Y-39962500D03*
X175750000Y-39962500D03*
%TD*%
D33*
%TO.C,J5*%
X110600000Y-79167500D03*
D22*
X115600000Y-79167500D03*
%TD*%
D13*
%TO.C,R39*%
X183175000Y-96500000D03*
X184825000Y-96500000D03*
%TD*%
D26*
%TO.C,D1*%
X130572500Y-66800000D03*
X128697500Y-66800000D03*
%TD*%
D18*
%TO.C,C11*%
X174600000Y-124425000D03*
X174600000Y-127375000D03*
%TD*%
D36*
%TO.C,J2*%
X158370000Y-91770000D03*
D37*
X158370000Y-89230000D03*
X160910000Y-91770000D03*
X160910000Y-89230000D03*
X163450000Y-91770000D03*
X163450000Y-89230000D03*
X165990000Y-91770000D03*
X165990000Y-89230000D03*
X168530000Y-91770000D03*
X168530000Y-89230000D03*
X171070000Y-91770000D03*
X171070000Y-89230000D03*
X173610000Y-91770000D03*
X173610000Y-89230000D03*
X176150000Y-91770000D03*
X176150000Y-89230000D03*
X178690000Y-91770000D03*
X178690000Y-89230000D03*
X181230000Y-91770000D03*
X181230000Y-89230000D03*
X183770000Y-91770000D03*
X183770000Y-89230000D03*
X186310000Y-91770000D03*
X186310000Y-89230000D03*
X188850000Y-91770000D03*
X188850000Y-89230000D03*
X191390000Y-91770000D03*
X191390000Y-89230000D03*
X193930000Y-91770000D03*
X193930000Y-89230000D03*
X196470000Y-91770000D03*
X196470000Y-89230000D03*
X199010000Y-91770000D03*
X199010000Y-89230000D03*
X201550000Y-91770000D03*
X201550000Y-89230000D03*
X204090000Y-91770000D03*
X204090000Y-89230000D03*
X206630000Y-91770000D03*
X206630000Y-89230000D03*
%TD*%
D29*
%TO.C,J1*%
X152920000Y-67670000D03*
X152920000Y-70210000D03*
X152920000Y-72750000D03*
X152920000Y-75290000D03*
%TD*%
D26*
%TO.C,D1*%
X198572500Y-125800000D03*
X196697500Y-125800000D03*
%TD*%
D10*
%TO.C,PI1*%
X211500000Y-90500000D03*
%TD*%
D21*
%TO.C,J8*%
X210067500Y-44700000D03*
D22*
X210067500Y-39700000D03*
%TD*%
D19*
%TO.C,J11*%
X139250000Y-140900000D03*
D20*
X139250000Y-138360000D03*
%TD*%
D12*
%TO.C,C6*%
X95775000Y-45400000D03*
X94225000Y-45400000D03*
%TD*%
D17*
%TO.C,D41*%
X136700000Y-81437500D03*
X136700000Y-79562500D03*
%TD*%
D24*
%TO.C,C18*%
X165375000Y-106300000D03*
X162425000Y-106300000D03*
%TD*%
D14*
%TO.C,JP8*%
X180250000Y-94200000D03*
D15*
X181550000Y-94200000D03*
%TD*%
D38*
%TO.C,PI4*%
X153500000Y-139500000D03*
%TD*%
D12*
%TO.C,C6*%
X163775000Y-104400000D03*
X162225000Y-104400000D03*
%TD*%
%TO.C,C30*%
X103675000Y-45950000D03*
X102125000Y-45950000D03*
%TD*%
D34*
%TO.C,U1*%
X164300000Y-40950000D03*
D35*
X162395000Y-43512500D03*
X163665000Y-43512500D03*
X164935000Y-43512500D03*
X166205000Y-43512500D03*
X166205000Y-38387500D03*
X164935000Y-38387500D03*
X163665000Y-38387500D03*
X162395000Y-38387500D03*
%TD*%
D41*
%TO.C,KiKit_FID_T_2*%
X218000000Y-22500000D03*
%TD*%
D29*
%TO.C,J6*%
X158020000Y-75290000D03*
X155480000Y-75290000D03*
X158020000Y-72750000D03*
X155480000Y-72750000D03*
X158020000Y-70210000D03*
X155480000Y-70210000D03*
X158020000Y-67670000D03*
X155480000Y-67670000D03*
%TD*%
D25*
%TO.C,C16*%
X128225000Y-51200000D03*
X131175000Y-51200000D03*
%TD*%
D21*
%TO.C,J10*%
X141967500Y-74800000D03*
D22*
X141967500Y-69800000D03*
%TD*%
D26*
%TO.C,D20*%
X214137500Y-48750000D03*
X212262500Y-48750000D03*
%TD*%
D17*
%TO.C,D29*%
X89450000Y-82837500D03*
X89450000Y-80962500D03*
%TD*%
D34*
%TO.C,U1*%
X96300000Y-99950000D03*
D35*
X94395000Y-102512500D03*
X95665000Y-102512500D03*
X96935000Y-102512500D03*
X98205000Y-102512500D03*
X98205000Y-97387500D03*
X96935000Y-97387500D03*
X95665000Y-97387500D03*
X94395000Y-97387500D03*
%TD*%
D19*
%TO.C,J11*%
X207250000Y-140900000D03*
D20*
X207250000Y-138360000D03*
%TD*%
D42*
%TO.C,C8*%
X102250000Y-101800000D03*
X102857769Y-98353173D03*
%TD*%
%TO.C,C8*%
X170250000Y-101800000D03*
X170857769Y-98353173D03*
%TD*%
%TO.C,C8*%
X170250000Y-42800000D03*
X170857769Y-39353173D03*
%TD*%
%TO.C,C8*%
X102250000Y-42800000D03*
X102857769Y-39353173D03*
%TD*%
M02*
